<!DOCTYPE svg PUBLIC "-//W3C//DTD SVG 1.1//EN" "http://www.w3.org/Graphics/SVG/1.1/DTD/svg11.dtd">
<!-- Uploaded to: SVG Repo, www.svgrepo.com, Transformed by: SVG Repo Mixer Tools -->
<svg fill="#f90101" height="256px" width="256px" version="1.1" id="Layer_1" xmlns="http://www.w3.org/2000/svg" xmlns:xlink="http://www.w3.org/1999/xlink" viewBox="-106.7 -106.7 698.40 698.40" xml:space="preserve" stroke="#f90101" transform="matrix(-1, 0, 0, 1, 0, 0)rotate(0)" stroke-width="0.00485">
<g id="SVGRepo_bgCarrier" stroke-width="0" transform="translate(36.375,36.375), scale(0.85)">
<rect x="-106.7" y="-106.7" width="698.40" height="698.40" rx="76.824" fill="#050505" strokewidth="0"/>
</g>
<g id="SVGRepo_tracerCarrier" stroke-linecap="round" stroke-linejoin="round" stroke="#CCCCCC" stroke-width="26.190000000000005"> <g> <path d="M485,352.061h-35.722c1.876-11.343,2.835-22.857,2.835-34.415c0-33.754-8.218-67.306-23.764-97.027 c-13.49-25.791-32.501-48.753-55.301-66.949l4.57-20.023l31.123-31.122h48.372v-30h-39.585V32.939h-30v48.372l-31.123,31.122 l-39.795,9.083c-23.654-8.949-48.561-13.485-74.111-13.485c-115.581,0-209.613,94.032-209.613,209.613 c0,11.558,0.959,23.072,2.835,34.415H0v30h42.927l20.107,70h359.409l19.694-70H485V352.061z M344.02,146.032l-20.728,90.813 c-2.449,10.631-7.846,20.351-15.604,28.111c-11.03,11.03-25.696,17.105-41.296,17.105s-30.265-6.074-41.295-17.105 c-11.03-11.03-17.105-25.696-17.105-41.295s6.075-30.265,17.105-41.295c7.759-7.759,17.479-13.155,28.08-15.598L344.02,146.032z M62.887,317.645c0-99.039,80.574-179.613,179.613-179.613c0.619,0,1.235,0.016,1.854,0.022 c-15.289,3.924-29.245,11.873-40.47,23.098c-16.697,16.697-25.893,38.896-25.893,62.509s9.195,45.812,25.893,62.508 c16.696,16.697,38.896,25.892,62.508,25.892s45.813-9.195,62.51-25.892c11.741-11.742,19.91-26.469,23.632-42.617l12.956-56.762 c35.792,33.733,56.624,81.149,56.624,130.857c0,11.585-1.108,23.117-3.3,34.415H66.186 C63.994,340.762,62.887,329.23,62.887,317.645z M399.719,422.061H85.63l-11.49-40h336.833L399.719,422.061z"/> </g> </g>
<g id="SVGRepo_iconCarrier"> <g> <path d="M485,352.061h-35.722c1.876-11.343,2.835-22.857,2.835-34.415c0-33.754-8.218-67.306-23.764-97.027 c-13.49-25.791-32.501-48.753-55.301-66.949l4.57-20.023l31.123-31.122h48.372v-30h-39.585V32.939h-30v48.372l-31.123,31.122 l-39.795,9.083c-23.654-8.949-48.561-13.485-74.111-13.485c-115.581,0-209.613,94.032-209.613,209.613 c0,11.558,0.959,23.072,2.835,34.415H0v30h42.927l20.107,70h359.409l19.694-70H485V352.061z M344.02,146.032l-20.728,90.813 c-2.449,10.631-7.846,20.351-15.604,28.111c-11.03,11.03-25.696,17.105-41.296,17.105s-30.265-6.074-41.295-17.105 c-11.03-11.03-17.105-25.696-17.105-41.295s6.075-30.265,17.105-41.295c7.759-7.759,17.479-13.155,28.08-15.598L344.02,146.032z M62.887,317.645c0-99.039,80.574-179.613,179.613-179.613c0.619,0,1.235,0.016,1.854,0.022 c-15.289,3.924-29.245,11.873-40.47,23.098c-16.697,16.697-25.893,38.896-25.893,62.509s9.195,45.812,25.893,62.508 c16.696,16.697,38.896,25.892,62.508,25.892s45.813-9.195,62.51-25.892c11.741-11.742,19.91-26.469,23.632-42.617l12.956-56.762 c35.792,33.733,56.624,81.149,56.624,130.857c0,11.585-1.108,23.117-3.3,34.415H66.186 C63.994,340.762,62.887,329.23,62.887,317.645z M399.719,422.061H85.63l-11.49-40h336.833L399.719,422.061z"/> </g> </g>
</svg>